
        <svg xmlns="http://www.w3.org/2000/svg" xmlns:xlink="http://www.w3.org/1999/xlink" version="1.1" width="3159.85010780226" 
        height="732.4982548246039" viewBox="0 0 3159.85010780226 732.4982548246039">
			
			<g transform="scale(7.992505390113008) translate(10, 10)">
				<defs id="SvgjsDefs6125"></defs><g id="SvgjsG6126" featureKey="nYIUkx-0" transform="matrix(0.8028208890444751,0,0,0.8028208890444751,12.183137064550648,-3.816925334266851)" fill="#01c0ff"><g xmlns="http://www.w3.org/2000/svg" transform="translate(0,-952.36218)"><path style="text-indent:0;text-transform:none;direction:ltr;block-progression:tb;baseline-shift:baseline;color:;enable-background:accumulate;" d="m 13.540789,1013.168 c -4.1612604,0 -7.5408665,3.3922 -7.5408665,7.5693 0,4.1771 3.3796061,7.605 7.5408665,7.605 0.813543,0 1.613976,-0.1361 2.383228,-0.3928 12.281102,18.8997 36.649842,23.2608 54.493227,13.032 0.521221,-0.2991 0.724607,-1.0475 0.426614,-1.571 -0.297992,-0.5234 -1.043503,-0.7275 -1.565078,-0.4284 -16.772953,9.6153 -39.67122,5.6292 -51.327282,-12.1037 1.894251,-1.3812 3.130157,-3.6195 3.130157,-6.1411 0,-4.1771 -3.379252,-7.5693 -7.540866,-7.5693 z" fill="#01c0ff" fill-opacity="1" fill-rule="evenodd" stroke="none" marker="none" visibility="visible" display="inline" overflow="visible"></path><path style="text-indent:0;text-transform:none;direction:ltr;block-progression:tb;baseline-shift:baseline;color:;enable-background:accumulate;" d="m 70.417244,970.57299 c -0.951023,0.12132 -1.237323,1.69026 -0.391181,2.14225 13.429842,8.21899 20.928543,24.30182 17.64248,40.55986 -0.392953,-0.067 -0.80185,-0.107 -1.209331,-0.107 -4.161259,0 -7.540866,3.3922 -7.540866,7.5692 0,4.1771 3.379607,7.605 7.540866,7.605 4.16126,0 7.540866,-3.4279 7.540866,-7.605 0,-2.9516 -1.686968,-5.51 -4.161614,-6.748 3.607441,-17.29107 -4.331338,-34.48188 -18.638503,-43.23773 -0.189921,-0.12122 -0.415984,-0.18423 -0.64063,-0.17852 -0.04784,-0.003 -0.09425,-0.003 -0.142087,0 z" fill="#01c0ff" fill-opacity="1" fill-rule="evenodd" stroke="none" marker="none" visibility="visible" display="inline" overflow="visible"></path><path style="text-indent:0;text-transform:none;direction:ltr;block-progression:tb;baseline-shift:baseline;color:;enable-background:accumulate;" d="m 50.000001,958.36218 c -4.012441,0 -7.27441,3.16987 -7.505079,7.14083 -17.197086,3.19362 -29.727637,16.85266 -32.5821254,33.06201 a 1.1383515,1.1426463 0 1 0 2.2407874,0.39275 c 2.681221,-15.22486 14.388307,-28.07084 30.518858,-31.1697 0.826653,3.28539 3.802677,5.71266 7.327559,5.71266 4.161259,0 7.540866,-3.39219 7.540866,-7.56928 0,-4.17708 -3.379607,-7.56927 -7.540866,-7.56927 z" fill="#01c0ff" fill-opacity="1" fill-rule="evenodd" stroke="none" marker="none" visibility="visible" display="inline" overflow="visible"></path></g></g><g id="SvgjsG6127" featureKey="PXhRQw-0" transform="matrix(2.0296317624282274,0,0,2.0296317624282274,91.73848482828521,-0.6653053072083228)" fill="#01c0ff"><path d="M8.4375 9.443 c-0.42317 0 -0.80239 0.01627 -1.1377 0.048818 s-0.62012 0.11067 -0.85449 0.23438 s-0.41341 0.30762 -0.53711 0.55176 s-0.18555 0.5778 -0.18555 1.001 l0 0.49805 l10.117 0 l0 2.8613 l-10.117 0 l0 5.3613 l-3.623 0 l0 -9.0234 c0 -0.69011 0.10254 -1.3086 0.30762 -1.8555 s0.54851 -1.0075 1.0303 -1.3818 s1.1198 -0.6608 1.9141 -0.85937 s1.7839 -0.29785 2.9688 -0.29785 l7.998 0 l0 2.8613 l-7.8809 0 z M23.04691875 14.2578 c0 0.55989 0.05208 1.0173 0.15625 1.3721 s0.27344 0.63639 0.50781 0.84472 s0.53874 0.35156 0.91309 0.42969 s0.83496 0.11719 1.3818 0.11719 l6.875 0 l0 2.9785 l-7.6172 0 c-1.0547 0 -1.9515 -0.08626 -2.6904 -0.25879 s-1.3428 -0.43945 -1.8115 -0.80078 s-0.80892 -0.81868 -1.0205 -1.3721 s-0.31738 -1.2109 -0.31738 -1.9727 l0 -9.0137 l3.623 0 l0 7.6758 z M53.144640625 13.300799999999999 c0 1.1523 -0.21159 2.1696 -0.63477 3.0518 s-1.0286 1.6194 -1.8164 2.2119 s-1.7432 1.04 -2.8662 1.3428 s-2.3845 0.4541 -3.7842 0.4541 s-2.6644 -0.15137 -3.7939 -0.4541 s-2.0915 -0.75032 -2.8857 -1.3428 s-1.4063 -1.3298 -1.8359 -2.2119 s-0.64453 -1.8994 -0.64453 -3.0518 s0.21484 -2.1696 0.64453 -3.0518 s1.0417 -1.6194 1.8359 -2.2119 s1.7562 -1.04 2.8857 -1.3428 s2.3942 -0.4541 3.7939 -0.4541 s2.6611 0.15137 3.7842 0.4541 s2.0784 0.75032 2.8662 1.3428 s1.3933 1.3298 1.8164 2.2119 s0.63477 1.8994 0.63477 3.0518 z M49.482640625 13.300799999999999 c0 -0.5013 -0.079756 -1.001 -0.23926 -1.499 s-0.44271 -0.94563 -0.84961 -1.3428 s-0.96191 -0.7194 -1.665 -0.9668 s-1.5983 -0.37109 -2.6855 -0.37109 c-0.72917 0 -1.3704 0.056963 -1.9238 0.1709 s-1.0319 0.27182 -1.4355 0.47364 s-0.74219 0.43783 -1.0156 0.70802 s-0.49153 0.5599 -0.6543 0.86915 s-0.27832 0.63151 -0.34668 0.9668 s-0.10254 0.66568 -0.10254 0.99121 c0 0.33203 0.03418 0.66731 0.10254 1.0059 s0.18392 0.66244 0.34668 0.97169 s0.38086 0.59733 0.6543 0.86426 s0.61198 0.49967 1.0156 0.69823 s0.88216 0.35481 1.4355 0.46875 s1.1946 0.1709 1.9238 0.1709 c1.0872 0 1.9824 -0.1237 2.6855 -0.37109 s1.2581 -0.56966 1.665 -0.9668 s0.69011 -0.84473 0.84961 -1.3428 s0.23926 -0.99775 0.23926 -1.499 z M69.385046875 6.582000000000001 l3.4277 9.3164 l3.7109 -9.3164 l3.7598 0 l-5.3906 13.418 l-4.0234 0 l-3.5059 -9.0234 l-3.4961 9.0234 l-4.0234 0 l-5.4004 -13.418 l3.7695 0 l3.6328 9.1211 l3.5059 -9.1211 l4.0332 0 z M82.58788125 20 l0 -13.418 l3.623 0 l0 13.418 l-3.623 0 z M107.773546875 13.300799999999999 c0 0.72917 -0.08626 1.3997 -0.25879 2.0117 s-0.42155 1.1751 -0.74707 1.6895 c0.39714 0.097656 0.76172 0.18229 1.0938 0.25391 s0.62175 0.13346 0.86914 0.18554 l0.78125 0.15625 l-0.97656 3.0469 l-4.4043 -1.3672 c-1.4648 0.72266 -3.2845 1.084 -5.459 1.084 c-1.3997 0 -2.6644 -0.15137 -3.7939 -0.4541 s-2.0915 -0.75032 -2.8857 -1.3428 s-1.4063 -1.3298 -1.8359 -2.2119 s-0.64453 -1.8994 -0.64453 -3.0518 s0.21484 -2.1696 0.64453 -3.0518 s1.0417 -1.6194 1.8359 -2.2119 s1.7562 -1.04 2.8857 -1.3428 s2.3942 -0.4541 3.7939 -0.4541 s2.6611 0.15137 3.7842 0.4541 s2.0784 0.75032 2.8662 1.3428 s1.3933 1.3298 1.8164 2.2119 s0.63477 1.8994 0.63477 3.0518 z M104.111546875 13.300799999999999 c0 -0.5013 -0.079756 -1.001 -0.23926 -1.499 s-0.44271 -0.94563 -0.84961 -1.3428 s-0.96191 -0.7194 -1.665 -0.9668 s-1.5983 -0.37109 -2.6855 -0.37109 c-0.72917 0 -1.3704 0.056963 -1.9238 0.1709 s-1.0319 0.27182 -1.4355 0.47364 s-0.74219 0.43783 -1.0156 0.70802 s-0.49153 0.5599 -0.6543 0.86915 s-0.27832 0.63151 -0.34668 0.9668 s-0.10254 0.66568 -0.10254 0.99121 c0 0.33203 0.03418 0.66731 0.10254 1.0059 s0.18392 0.66244 0.34668 0.97169 s0.38086 0.59733 0.6543 0.86426 s0.61198 0.49967 1.0156 0.69823 s0.88216 0.35481 1.4355 0.46875 s1.1946 0.1709 1.9238 0.1709 c1.0872 0 1.9824 -0.1237 2.6855 -0.37109 s1.2581 -0.56966 1.665 -0.9668 s0.69011 -0.84473 0.84961 -1.3428 s0.23926 -0.99775 0.23926 -1.499 z M110.166011875 20 l0 -3.5156 l3.7012 0 l0 3.5156 l-3.7012 0 z M128.350046875 20 l0 -1.3184 c-0.46224 0.25391 -0.95865 0.47852 -1.4893 0.67383 s-1.0823 0.36133 -1.6553 0.49805 s-1.1638 0.23926 -1.7725 0.30762 s-1.2224 0.10254 -1.8408 0.10254 c-0.72266 0 -1.4209 -0.068359 -2.0947 -0.20508 s-1.2712 -0.35808 -1.792 -0.66406 s-0.93912 -0.70638 -1.2549 -1.2012 s-0.47363 -1.1003 -0.47363 -1.8164 c0 -0.90495 0.24739 -1.6585 0.74219 -2.2607 s1.25 -1.0954 2.2656 -1.4795 s2.2998 -0.68033 3.8525 -0.88866 s3.3903 -0.37109 5.5127 -0.48828 l0 -0.2832 c0 -0.22136 -0.058594 -0.44108 -0.17578 -0.65918 s-0.3304 -0.41016 -0.63965 -0.57617 s-0.73242 -0.3011 -1.2695 -0.40527 s-1.2224 -0.15625 -2.0557 -0.15625 c-0.65755 0 -1.3069 0.03418 -1.9482 0.10254 s-1.2598 0.16113 -1.8555 0.27832 s-1.1604 0.25391 -1.6943 0.41016 s-1.0188 0.31901 -1.4551 0.48828 l0 -3.2227 c0.45573 -0.11719 0.9668 -0.23112 1.5332 -0.3418 s1.1556 -0.2067 1.7676 -0.28808 s1.2305 -0.14648 1.8555 -0.19531 s1.2239 -0.073242 1.7969 -0.073242 c1.1263 0 2.1647 0.092773 3.1152 0.27832 s1.7692 0.47363 2.4561 0.86426 s1.2239 0.88542 1.6113 1.4844 s0.58105 1.3118 0.58105 2.1387 l0 8.8965 l-3.623 0 z M128.350046875 13.876999999999999 c-1.3933 0.05208 -2.5765 0.12693 -3.5498 0.22459 s-1.7822 0.21159 -2.4268 0.3418 s-1.1507 0.27018 -1.5186 0.41991 s-0.64291 0.30273 -0.82521 0.45898 s-0.2946 0.3125 -0.33691 0.46875 s-0.063477 0.29948 -0.063477 0.42969 c0 0.15625 0.042314 0.30762 0.12695 0.4541 s0.23275 0.27507 0.44435 0.38574 s0.49316 0.19856 0.84473 0.26367 s0.79427 0.097656 1.3281 0.097656 c0.59245 0 1.1719 -0.045576 1.7383 -0.13672 s1.1035 -0.21646 1.6113 -0.37597 s0.98467 -0.3483 1.4307 -0.5664 s0.84473 -0.45084 1.1963 -0.69823 l0 -1.7676 z M136.113271875 20 l0 -13.418 l3.623 0 l0 13.418 l-3.623 0 z"></path></g><g id="SvgjsG6128" featureKey="mlRtrp-0" transform="matrix(0.5974618635397483,0,0,0.5974618635397483,99.94162847460716,47.27171816872092)" fill="#ffffff"><path d="M12.881 17.4609 l-7.4805 0 l-1.2598 2.5391 l-4.043 0 l7.0215 -13.418 l4.043 0 l7.0215 13.418 l-4.043 0 z M6.6992 14.8437 l4.9023 0 l-2.4414 -4.9414 z M52.211203125 11.1621 c0 0.67058 -0.097656 1.2874 -0.29297 1.8506 s-0.50944 1.0481 -0.94238 1.4551 s-0.99443 0.72429 -1.6846 0.95215 s-1.53 0.3418 -2.5195 0.3418 l-6.0156 0 l0 4.2383 l-3.623 0 l0 -13.418 l9.6387 0 c0.98955 0 1.8294 0.1123 2.5195 0.33691 s1.2517 0.54036 1.6846 0.94727 s0.74707 0.8903 0.94238 1.4502 s0.29297 1.1751 0.29297 1.8457 z M48.549203125 11.2207 c0 -0.3125 -0.043945 -0.58104 -0.13184 -0.80565 s-0.23274 -0.40853 -0.43457 -0.55176 s-0.4655 -0.24902 -0.79102 -0.31738 s-0.72591 -0.10254 -1.2012 -0.10254 l-5.2344 0 l0 3.457 l5.2344 0 c0.47526 0 0.87565 -0.027666 1.2012 -0.083008 s0.58919 -0.14975 0.79102 -0.28321 s0.34668 -0.30762 0.43457 -0.52246 s0.13184 -0.47852 0.13184 -0.79102 z M87.039328125 11.1621 c0 0.67058 -0.097656 1.2874 -0.29297 1.8506 s-0.50944 1.0481 -0.94238 1.4551 s-0.99443 0.72429 -1.6846 0.95215 s-1.53 0.3418 -2.5195 0.3418 l-6.0156 0 l0 4.2383 l-3.623 0 l0 -13.418 l9.6387 0 c0.98955 0 1.8294 0.1123 2.5195 0.33691 s1.2517 0.54036 1.6846 0.94727 s0.74707 0.8903 0.94238 1.4502 s0.29297 1.1751 0.29297 1.8457 z M83.377328125 11.2207 c0 -0.3125 -0.043945 -0.58104 -0.13184 -0.80565 s-0.23274 -0.40853 -0.43457 -0.55176 s-0.4655 -0.24902 -0.79102 -0.31738 s-0.72591 -0.10254 -1.2012 -0.10254 l-5.2344 0 l0 3.457 l5.2344 0 c0.47526 0 0.87565 -0.027666 1.2012 -0.083008 s0.58919 -0.14975 0.79102 -0.28321 s0.34668 -0.30762 0.43457 -0.52246 s0.13184 -0.47852 0.13184 -0.79102 z M110.412153125 20 l-3.623 0 l0 -13.418 l9.082 0 c0.97656 0 1.805 0.10091 2.4854 0.30273 s1.2337 0.48828 1.6602 0.85938 s0.73568 0.81868 0.92774 1.3428 s0.28809 1.1084 0.28809 1.7529 c0 0.56641 -0.079756 1.0612 -0.23926 1.4844 s-0.37435 0.78613 -0.64453 1.0889 s-0.58432 0.55827 -0.94239 0.7666 s-0.73568 0.38086 -1.1328 0.51758 l4.3945 5.3027 l-4.2383 0 l-4.0625 -4.9414 l-3.9551 0 l0 4.9414 z M117.570453125 10.8203 c0 -0.26042 -0.03418 -0.48174 -0.10254 -0.66403 s-0.18718 -0.33041 -0.35645 -0.44435 s-0.39551 -0.19694 -0.67871 -0.24902 s-0.6364 -0.078125 -1.0596 -0.078125 l-4.9609 0 l0 2.8711 l4.9609 0 c0.42317 0 0.77637 -0.026045 1.0596 -0.078125 s0.50944 -0.13509 0.67871 -0.24902 s0.28809 -0.26205 0.35645 -0.44435 s0.10254 -0.40365 0.10254 -0.66407 z M159.2833125 13.300799999999999 c0 1.1523 -0.21159 2.1696 -0.63477 3.0518 s-1.0286 1.6194 -1.8164 2.2119 s-1.7432 1.04 -2.8662 1.3428 s-2.3845 0.4541 -3.7842 0.4541 s-2.6644 -0.15137 -3.7939 -0.4541 s-2.0915 -0.75032 -2.8857 -1.3428 s-1.4063 -1.3298 -1.8359 -2.2119 s-0.64453 -1.8994 -0.64453 -3.0518 s0.21484 -2.1696 0.64453 -3.0518 s1.0417 -1.6194 1.8359 -2.2119 s1.7562 -1.04 2.8857 -1.3428 s2.3942 -0.4541 3.7939 -0.4541 s2.6611 0.15137 3.7842 0.4541 s2.0784 0.75032 2.8662 1.3428 s1.3933 1.3298 1.8164 2.2119 s0.63477 1.8994 0.63477 3.0518 z M155.6213125 13.300799999999999 c0 -0.5013 -0.079756 -1.001 -0.23926 -1.499 s-0.44271 -0.94563 -0.84961 -1.3428 s-0.96191 -0.7194 -1.665 -0.9668 s-1.5983 -0.37109 -2.6855 -0.37109 c-0.72917 0 -1.3704 0.056963 -1.9238 0.1709 s-1.0319 0.27182 -1.4355 0.47364 s-0.74219 0.43783 -1.0156 0.70802 s-0.49153 0.5599 -0.6543 0.86915 s-0.27832 0.63151 -0.34668 0.9668 s-0.10254 0.66568 -0.10254 0.99121 c0 0.33203 0.03418 0.66731 0.10254 1.0059 s0.18392 0.66244 0.34668 0.97169 s0.38086 0.59733 0.6543 0.86426 s0.61198 0.49967 1.0156 0.69823 s0.88216 0.35481 1.4355 0.46875 s1.1946 0.1709 1.9238 0.1709 c1.0872 0 1.9824 -0.1237 2.6855 -0.37109 s1.2581 -0.56966 1.665 -0.9668 s0.69011 -0.84473 0.84961 -1.3428 s0.23926 -0.99775 0.23926 -1.499 z M188.14501562499998 20 l-4.2188 0 l-6.7871 -13.418 l4.043 0 l4.8828 10.098 l4.873 -10.098 l4.043 0 z M213.929678125 20 l0 -13.418 l13.584 0 l0 2.8613 l-9.8633 0 l0 2.2168 l9.3555 0 l0 2.8613 l-9.3555 0 l0 2.6172 l10 0 l0 2.8613 l-13.721 0 z M284.5333125 10.3613 c-0.25391 -0.1237 -0.58916 -0.26372 -1.0059 -0.41997 s-0.88867 -0.30437 -1.416 -0.44434 s-1.1003 -0.25716 -1.7188 -0.35156 s-1.2532 -0.1416 -1.9043 -0.1416 c-0.52083 0 -0.96517 0.016279 -1.333 0.048828 s-0.67709 0.074863 -0.92774 0.12694 s-0.44922 0.1123 -0.5957 0.18066 s-0.25879 0.13835 -0.33691 0.20996 s-0.12858 0.14322 -0.15137 0.21483 s-0.03418 0.13672 -0.03418 0.19531 c0 0.19531 0.097656 0.36621 0.29297 0.5127 s0.46224 0.27669 0.80078 0.39063 s0.73242 0.22136 1.1816 0.32227 s0.9261 0.20508 1.4307 0.3125 s1.0254 0.22461 1.5625 0.35156 s1.0579 0.27507 1.5625 0.44434 s0.98145 0.36621 1.4307 0.59082 s0.8431 0.48665 1.1816 0.78613 s0.60547 0.64453 0.80078 1.0352 s0.29297 0.83659 0.29297 1.3379 c0 0.64453 -0.11394 1.1979 -0.3418 1.6602 s-0.53223 0.85286 -0.91309 1.1719 s-0.82194 0.57455 -1.3232 0.76661 s-1.0271 0.34018 -1.5771 0.44435 s-1.1067 0.17253 -1.6699 0.20508 s-1.0986 0.048828 -1.6064 0.048828 c-1.3281 0 -2.5569 -0.10905 -3.6865 -0.32715 s-2.1272 -0.4899 -2.9932 -0.81542 l0 -3.2031 c0.89192 0.49479 1.9092 0.88217 3.0518 1.1621 s2.3649 0.41992 3.667 0.41992 c0.76823 0 1.3948 -0.040693 1.8799 -0.12207 s0.86426 -0.18555 1.1377 -0.3125 s0.45898 -0.2653 0.55664 -0.41504 s0.14648 -0.29297 0.14648 -0.42969 c0 -0.21484 -0.097656 -0.40202 -0.29297 -0.56152 s-0.46224 -0.29947 -0.80078 -0.41991 s-0.73242 -0.23111 -1.1816 -0.33202 s-0.9261 -0.20182 -1.4307 -0.30272 s-1.0237 -0.20996 -1.5576 -0.32715 s-1.053 -0.25554 -1.5576 -0.41504 s-0.98145 -0.34505 -1.4307 -0.55664 s-0.8431 -0.46225 -1.1816 -0.75196 s-0.60547 -0.625 -0.80078 -1.0059 s-0.29297 -0.82194 -0.29297 -1.3232 c0 -0.59245 0.10417 -1.1035 0.3125 -1.5332 s0.4899 -0.7959 0.84472 -1.0986 s0.76497 -0.54851 1.2305 -0.7373 s0.95541 -0.33528 1.4697 -0.43945 s1.0352 -0.17578 1.5625 -0.21484 s1.0286 -0.058594 1.5039 -0.058594 c0.52083 0 1.0563 0.026045 1.6064 0.078125 s1.0921 0.12532 1.626 0.21973 s1.0498 0.20346 1.5479 0.32716 s0.95866 0.25391 1.3818 0.39063 l0 3.1055 z M305.8261625 20 l0 -13.418 l3.623 0 l0 13.418 l-3.623 0 z M347.46078125 20 l0 -9.4238 l-4.9805 9.4238 l-3.4766 0 l-4.9805 -9.4238 l0 9.4238 l-3.623 0 l0 -13.418 l4.9219 0 l5.4199 10.156 l5.4199 -10.156 l4.9023 0 l0 13.418 l-3.6035 0 z M387.094015625 11.1621 c0 0.67058 -0.097656 1.2874 -0.29297 1.8506 s-0.50944 1.0481 -0.94238 1.4551 s-0.99443 0.72429 -1.6846 0.95215 s-1.53 0.3418 -2.5195 0.3418 l-6.0156 0 l0 4.2383 l-3.623 0 l0 -13.418 l9.6387 0 c0.98955 0 1.8294 0.1123 2.5195 0.33691 s1.2517 0.54036 1.6846 0.94727 s0.74707 0.8903 0.94238 1.4502 s0.29297 1.1751 0.29297 1.8457 z M383.432015625 11.2207 c0 -0.3125 -0.043945 -0.58104 -0.13184 -0.80565 s-0.23274 -0.40853 -0.43457 -0.55176 s-0.4655 -0.24902 -0.79102 -0.31738 s-0.72591 -0.10254 -1.2012 -0.10254 l-5.2344 0 l0 3.457 l5.2344 0 c0.47526 0 0.87565 -0.027666 1.2012 -0.083008 s0.58919 -0.14975 0.79102 -0.28321 s0.34668 -0.30762 0.43457 -0.52246 s0.13184 -0.47852 0.13184 -0.79102 z M406.843740625 20 l0 -13.418 l3.623 0 l0 10.479 l9.7949 0 l0 2.9395 l-13.418 0 z M439.914053125 20 l0 -13.418 l13.584 0 l0 2.8613 l-9.8633 0 l0 2.2168 l9.3555 0 l0 2.8613 l-9.3555 0 l0 2.6172 l10 0 l0 2.8613 l-13.721 0 z"></path></g>
			</g>
		</svg>
	